<svg width="31" height="29" viewBox="0 0 31 29" fill="none" xmlns="http://www.w3.org/2000/svg">
<g clip-path="url(#clip0_1432_43)">
<path d="M15.6316 21.7749L22.6562 25.4709L21.3169 17.6494L27.0021 12.1111L19.1467 10.9695L15.6316 3.84881V0.000244141C16.2759 0.000244141 16.9201 0.333674 17.2535 1.00618L20.9439 8.48857L29.2005 9.68666C30.6811 9.90141 31.2745 11.7268 30.2008 12.7723L24.2273 18.5932L25.6401 26.8159C25.8945 28.2909 24.3403 29.4155 23.0179 28.7204L15.6316 24.8436V21.7749Z" fill="#FFC403"/>
</g>
<g clip-path="url(#clip1_1432_43)">
<path d="M15.7258 21.7749L8.70114 25.4709L10.0405 17.6494L4.35525 12.1111L12.2106 10.9695L15.7258 3.84881V0.000244141C15.0815 0.000244141 14.4373 0.333674 14.1038 1.00618L10.4135 8.48857L2.15688 9.68666C0.676226 9.90141 0.0828345 11.7268 1.15659 12.7723L7.13007 18.5932L5.71723 26.8159C5.46292 28.2909 7.01704 29.4155 8.33946 28.7204L15.7258 24.8436V21.7749Z" fill="#FFC403"/>
</g>
<defs>
<clipPath id="clip0_1432_43">
<rect width="15.1185" height="28.9349" fill="white" transform="translate(15.6787 0.000244141)"/>
</clipPath>
<clipPath id="clip1_1432_43">
<rect width="15.1185" height="28.9349" fill="white" transform="translate(0.608429 0.000244141)"/>
</clipPath>
</defs>
</svg>
