<svg width="31" height="29" viewBox="0 0 31 29" fill="none" xmlns="http://www.w3.org/2000/svg">
<path d="M15.1174 0.000244141C14.4731 0.000244141 13.8289 0.333674 13.4954 1.00618L9.80512 8.48857L1.5485 9.68666C0.0678431 9.90141 -0.525549 11.7268 0.548208 12.7723L6.52168 18.5932L5.10885 26.8159C4.85454 28.2909 6.40866 29.4155 7.73107 28.7204L15.1174 24.8436V0.000244141Z" fill="#FFC403"/>
<path d="M15.0231 0.000244141C15.6674 0.000244141 16.3117 0.333674 16.6451 1.00618L20.3354 8.48857L28.592 9.68666C30.0727 9.90141 30.6661 11.7268 29.5923 12.7723L23.6188 18.5932L25.0317 26.8159C25.286 28.2909 23.7319 29.4155 22.4095 28.7204L15.0231 24.8436V0.000244141Z" fill="#FFC403"/>
</svg>
